<svg id="Layer_1" data-name="Layer 1" xmlns="http://www.w3.org/2000/svg" viewBox="0 0 1366 587.26"><defs><style>.cls-1{fill:#ffcc5c;}.cls-2{fill:#96ceb4;}</style></defs><title>logo_reunuksella</title><g id="logo"><g id="salama"><path class="cls-1" d="M232.93,423.69a22.19,22.19,0,0,1-19.09-33.48l40.22-68.16L191.29,341.6a22.2,22.2,0,0,1-25.68-32.53l79.15-133.21a22.2,22.2,0,1,1,38.17,22.68L233.34,282l62.51-19.47A22.2,22.2,0,0,1,321.57,295L252.08,412.77A22.21,22.21,0,0,1,232.93,423.69Z"/></g><g id="bittinen"><path id="b" class="cls-2" d="M435.74,260.52q20.61,0,37.88,18.3t17.25,42.51q0,24.21-17.14,42.4T436.9,381.91q-19.69,0-28-11.12-1.86,11.35-19.93,11.36-14.6,0-17.84-6.26a21.78,21.78,0,0,1-2-6.14,67.93,67.93,0,0,1-.34-8V223.46a68.24,68.24,0,0,1,.34-8,19.17,19.17,0,0,1,2-5.9q3.24-6.26,18.07-6.26,14.59,0,17.61,6.26a18.6,18.6,0,0,1,2.2,6.13,67.76,67.76,0,0,1,.35,8v48.18Q418.59,260.53,435.74,260.52Zm-20.27,74.83a18.41,18.41,0,0,0,14.24,6.25,19.52,19.52,0,0,0,14.6-6.25q6-6.25,6-13.9a20.85,20.85,0,0,0-5.56-14q-5.55-6.36-14.82-6.37t-14.71,6.49a21.39,21.39,0,0,0-5.45,14A20,20,0,0,0,415.47,335.35Z"/><path id="i" class="cls-2" d="M544,237.7a9.81,9.81,0,0,1-6.14,4.75,49.94,49.94,0,0,1-23.4,0,9.7,9.7,0,0,1-6.14-4.86,20,20,0,0,1-2.08-6.14,91.49,91.49,0,0,1,0-16,18.91,18.91,0,0,1,2-5.9q3.24-6.26,18.07-6.26,14.59,0,17.6,6.26a18.65,18.65,0,0,1,2.21,6.13,94.17,94.17,0,0,1,0,16A18.76,18.76,0,0,1,544,237.7Zm-38.11,43a67.65,67.65,0,0,1,.35-8,21.55,21.55,0,0,1,2-6.14q3.24-6,18.07-6,11.11,0,15.75,3.94c2.63,2.16,4,5.49,4.17,10q.22,2.32.23,6.72v81.08a68.13,68.13,0,0,1-.34,8,18.65,18.65,0,0,1-2.21,6.13q-3,6-17.83,6-14.6,0-17.84-6.26a21.54,21.54,0,0,1-2-6,67.11,67.11,0,0,1-.35-8.11Z"/><path id="tt" class="cls-2" d="M715.82,301.29l-15.06-.92v32c0,4.17.65,7.18,2,9s3.78,2.78,7.41,2.78a75.43,75.43,0,0,1,8.34.35,14.71,14.71,0,0,1,5.91,2.2q5.55,3,5.56,15.52,0,14.59-6.49,17.84a21.46,21.46,0,0,1-6.14,2,64.89,64.89,0,0,1-7.76.35q-23.16,0-36.14-12.05t-13-35.68V300.37q-11.12.93-18.53.92l-21.09-.92v32q0,6.26,2,9c1.31,1.86,3.79,2.78,7.42,2.78a75.68,75.68,0,0,1,8.34.35,16.57,16.57,0,0,1,6.14,2.2q5.32,3,5.32,15.52,0,14.59-6.48,17.84a21.55,21.55,0,0,1-6.14,2,65,65,0,0,1-7.76.35q-23.17,0-36.14-12.05t-13-35.68V300.37a65.18,65.18,0,0,1-9.61.69,10.52,10.52,0,0,1-8.34-3.94q-3.36-3.93-3.36-13.43t1.16-13.79c.77-2.85,1.85-4.9,3.24-6.13a14.21,14.21,0,0,1,9.27-3l7.64.93V237.82a64.53,64.53,0,0,1,.35-7.88,14.5,14.5,0,0,1,2.2-5.56q3-5.79,17.84-5.79,15.75,0,18.77,8.57,1.16,3.71,1.15,11.82v22q10.89-.24,20.62-.24l19,.24V237.82a62.53,62.53,0,0,1,.35-7.88,16.45,16.45,0,0,1,2-5.56q3.24-5.79,18.06-5.79,15.76,0,18.54,8.57,1.38,3.71,1.39,11.82v22.7c6.79-.61,11.93-.93,15.4-.93a66.26,66.26,0,0,1,7.88.35,16.65,16.65,0,0,1,5.91,2.2q6.25,3,6.25,17.84,0,14.6-6.25,17.84a21.55,21.55,0,0,1-6.14,2A68,68,0,0,1,715.82,301.29Z"/><path id="i-2" data-name="i" class="cls-2" d="M787.05,237.7a9.81,9.81,0,0,1-6.14,4.75,49.94,49.94,0,0,1-23.4,0,9.7,9.7,0,0,1-6.14-4.86,20,20,0,0,1-2.08-6.14,91.49,91.49,0,0,1,0-16,18.91,18.91,0,0,1,2-5.9q3.24-6.26,18.07-6.26,14.59,0,17.61,6.26a18.83,18.83,0,0,1,2.2,6.13,94.17,94.17,0,0,1,0,16A18.76,18.76,0,0,1,787.05,237.7Zm-38.11,43a67.65,67.65,0,0,1,.35-8,21.55,21.55,0,0,1,2-6.14q3.24-6,18.07-6,11.11,0,15.75,3.94c2.62,2.16,4,5.49,4.17,10q.22,2.32.23,6.72v81.08a68.13,68.13,0,0,1-.34,8,18.83,18.83,0,0,1-2.2,6.13q-3,6-17.84,6-14.6,0-17.84-6.26a21.54,21.54,0,0,1-2-6,67.11,67.11,0,0,1-.35-8.11Z"/><path id="n" class="cls-2" d="M875.89,260.29q23.16,0,38.57,17.72t15.41,43.21V362a67.45,67.45,0,0,1-.35,8,18.87,18.87,0,0,1-2,5.91q-3.24,6.25-18.07,6.26-16.46,0-19-8.58-1.4-3.93-1.39-11.81V321q0-9.51-5.45-14.83t-14.59-5.33q-9.16,0-14.83,5.56T848.55,321v41a67.93,67.93,0,0,1-.34,8,16.51,16.51,0,0,1-2.2,5.91q-3,6.25-17.84,6.26-14.59,0-17.84-6.26a21.46,21.46,0,0,1-2-6.14,67.45,67.45,0,0,1-.35-8v-82a65,65,0,0,1,.35-7.76,16.46,16.46,0,0,1,2.2-5.91q3.24-5.79,17.84-5.79,14.13,0,17.38,5.33a18.47,18.47,0,0,1,2.31,9.5,23.81,23.81,0,0,1,4.17-4.64,41.15,41.15,0,0,1,6.26-4.86A30.33,30.33,0,0,1,875.89,260.29Z"/><path id="e" class="cls-2" d="M1066.08,306.74q0,14.25-7.06,21.08t-15.64,6.83h-54.9q0,6.5,7.64,10.89a30.4,30.4,0,0,0,15.29,4.41q13.44,0,21.08-2.79l2.55-.92q5.57-2.55,9.27-2.55,7.41,0,12.74,10.42,3,6.25,3,10.66,0,20.63-49.34,20.62-17.15,0-30.47-5.91t-20.73-15.64a66.6,66.6,0,0,1-14.6-41.93q0-29.19,18.89-46.68T1011,257.74q32.19,0,47.26,22.71A47.07,47.07,0,0,1,1066.08,306.74Zm-48.88,6.83q8.81,0,8.81-7.41a10.44,10.44,0,0,0-4.06-8.57q-4.05-3.24-11.58-3.25t-14.94,6.14Q988,306.63,988,313.57Z"/><path id="n-2" data-name="n" class="cls-2" d="M1149,260.29q23.16,0,38.57,17.72T1203,321.22V362a67.45,67.45,0,0,1-.35,8,18.87,18.87,0,0,1-2,5.91q-3.24,6.25-18.07,6.26-16.45,0-19-8.58-1.38-3.93-1.39-11.81V321q0-9.51-5.44-14.83t-14.59-5.33q-9.17,0-14.83,5.56t-5.68,14.6v41a67.93,67.93,0,0,1-.34,8,16.7,16.7,0,0,1-2.2,5.91q-3,6.25-17.84,6.26-14.6,0-17.84-6.26a21.46,21.46,0,0,1-2-6.14,67.45,67.45,0,0,1-.35-8v-82a65,65,0,0,1,.35-7.76,16.46,16.46,0,0,1,2.2-5.91q3.24-5.79,17.84-5.79,14.13,0,17.37,5.33a18.37,18.37,0,0,1,2.32,9.5,23.81,23.81,0,0,1,4.17-4.64,41.15,41.15,0,0,1,6.26-4.86A30.33,30.33,0,0,1,1149,260.29Z"/></g></g></svg>