<svg xmlns="http://www.w3.org/2000/svg" viewBox="0 0 1040.51 258.7"><defs><style>.cls-1{fill:#ffcc5c;}.cls-2{fill:#96ceb4;}</style></defs><title>logobittinen</title><g id="Layer_2" data-name="Layer 2"><g id="Layer_1-2" data-name="Layer 1"><g id="logo"><g id="salama"><path class="cls-1" d="M70.44,258.7a22.2,22.2,0,0,1-19.1-33.49l40.22-68.15L28.8,176.61A22.2,22.2,0,0,1,3.12,144.07L82.27,10.87a22.2,22.2,0,1,1,38.17,22.68L70.85,117l62.51-19.47A22.2,22.2,0,0,1,159.08,130L89.58,247.78A22.18,22.18,0,0,1,70.44,258.7Z"/></g><g id="bittinen"><path id="b" class="cls-2" d="M273.25,95.53q20.61,0,37.87,18.3t17.26,42.51q0,24.21-17.14,42.39t-36.83,18.19q-19.7,0-28-11.12-1.85,11.35-19.92,11.35-14.59,0-17.84-6.25a21.88,21.88,0,0,1-2-6.14,68.13,68.13,0,0,1-.34-8V58.46a68,68,0,0,1,.34-8,19.22,19.22,0,0,1,2-5.91q3.24-6.26,18.07-6.25,14.59,0,17.61,6.25a18.72,18.72,0,0,1,2.2,6.14,67.57,67.57,0,0,1,.35,8v48.19Q256.09,95.53,273.25,95.53ZM253,170.36a18.41,18.41,0,0,0,14.24,6.25,19.52,19.52,0,0,0,14.6-6.25q6-6.26,6-13.9a20.85,20.85,0,0,0-5.56-14q-5.55-6.37-14.82-6.37t-14.72,6.48a21.42,21.42,0,0,0-5.44,14A20.07,20.07,0,0,0,253,170.36Z"/><path id="i" class="cls-2" d="M381.55,72.71a9.85,9.85,0,0,1-6.14,4.75,49.94,49.94,0,0,1-23.4,0,9.74,9.74,0,0,1-6.14-4.87,19.68,19.68,0,0,1-2.08-6.14,67.33,67.33,0,0,1-.35-8,67.57,67.57,0,0,1,.35-8,18.7,18.7,0,0,1,2-5.91q3.24-6.26,18.07-6.25,14.6,0,17.6,6.25a18.49,18.49,0,0,1,2.2,6.14,65.45,65.45,0,0,1,.35,8,65.52,65.52,0,0,1-.35,8A18.63,18.63,0,0,1,381.55,72.71Zm-38.11,43a67.57,67.57,0,0,1,.35-8,21.24,21.24,0,0,1,2-6.14q3.24-6,18.07-6,11.12,0,15.75,3.93,3.93,3.26,4.17,10,.22,2.31.23,6.72v81.08a65.34,65.34,0,0,1-.35,8,18.42,18.42,0,0,1-2.2,6.14q-3,6-17.83,6-14.6,0-17.84-6.25a21.26,21.26,0,0,1-2-6,66.91,66.91,0,0,1-.35-8.1Z"/><path id="tt" class="cls-2" d="M553.32,136.3l-15.05-.93v32c0,4.17.65,7.19,2,9s3.78,2.78,7.41,2.78a73,73,0,0,1,8.34.35,14.57,14.57,0,0,1,5.91,2.2q5.55,3,5.56,15.52,0,14.6-6.49,17.84a21.55,21.55,0,0,1-6.14,2,65.33,65.33,0,0,1-7.76.34q-23.18,0-36.14-12t-13-35.67V135.37q-11.13.93-18.54.93l-21.08-.93v32c0,4.17.66,7.19,2,9s3.78,2.78,7.42,2.78a72.93,72.93,0,0,1,8.33.35,16.34,16.34,0,0,1,6.14,2.2q5.34,3,5.33,15.52,0,14.6-6.48,17.84a21.55,21.55,0,0,1-6.14,2,65.44,65.44,0,0,1-7.76.34q-23.17,0-36.14-12t-13-35.67V135.37a63.82,63.82,0,0,1-9.61.7,10.52,10.52,0,0,1-8.34-3.94c-2.24-2.63-3.36-7.1-3.36-13.44s.38-10.92,1.16-13.78a12.43,12.43,0,0,1,3.24-6.14,14.26,14.26,0,0,1,9.27-3l7.64.93V72.83a64.42,64.42,0,0,1,.35-7.88,14.5,14.5,0,0,1,2.2-5.56q3-5.79,17.84-5.79,15.75,0,18.76,8.57,1.17,3.7,1.16,11.81V96q10.89-.22,20.62-.23L498,96V72.83A64.9,64.9,0,0,1,498.3,65a16.89,16.89,0,0,1,2-5.56q3.25-5.79,18.07-5.79,15.75,0,18.54,8.57,1.38,3.7,1.39,11.81V96.69q10.18-.93,15.4-.93a66.26,66.26,0,0,1,7.88.35,16.46,16.46,0,0,1,5.91,2.2q6.25,3,6.25,17.84,0,14.6-6.25,17.83a21.24,21.24,0,0,1-6.14,2A67.65,67.65,0,0,1,553.32,136.3Z"/><path id="i-2" data-name="i" class="cls-2" d="M624.56,72.71a9.85,9.85,0,0,1-6.14,4.75,49.94,49.94,0,0,1-23.4,0,9.74,9.74,0,0,1-6.14-4.87,19.68,19.68,0,0,1-2.08-6.14,67.33,67.33,0,0,1-.35-8,67.57,67.57,0,0,1,.35-8,19,19,0,0,1,2-5.91q3.24-6.26,18.07-6.25,14.6,0,17.6,6.25a18.49,18.49,0,0,1,2.2,6.14,65.45,65.45,0,0,1,.35,8,65.52,65.52,0,0,1-.35,8A18.63,18.63,0,0,1,624.56,72.71Zm-38.11,43a67.57,67.57,0,0,1,.35-8,21.55,21.55,0,0,1,2-6.14q3.24-6,18.07-6,11.11,0,15.75,3.93,3.93,3.26,4.17,10,.22,2.31.23,6.72v81.08a65.34,65.34,0,0,1-.35,8,18.42,18.42,0,0,1-2.2,6.14q-3,6-17.83,6-14.6,0-17.84-6.25a21.59,21.59,0,0,1-2-6,66.91,66.91,0,0,1-.35-8.1Z"/><path id="n" class="cls-2" d="M713.4,95.29q23.16,0,38.57,17.73t15.41,43.2V197a67.45,67.45,0,0,1-.35,8,18.87,18.87,0,0,1-2,5.91q-3.24,6.25-18.07,6.25-16.46,0-19-8.57-1.38-3.93-1.39-11.82V156q0-9.5-5.44-14.82t-14.59-5.33q-9.17,0-14.83,5.56T686.06,156v41a67.93,67.93,0,0,1-.34,8,16.7,16.7,0,0,1-2.2,5.91q-3,6.25-17.84,6.25-14.59,0-17.84-6.25a21.55,21.55,0,0,1-2-6.14,67.65,67.65,0,0,1-.35-8v-82a65,65,0,0,1,.35-7.76,16.35,16.35,0,0,1,2.2-5.9q3.24-5.79,17.84-5.8,14.13,0,17.37,5.33a18.4,18.4,0,0,1,2.32,9.5,23.84,23.84,0,0,1,4.17-4.63,41.07,41.07,0,0,1,6.25-4.87A30.38,30.38,0,0,1,713.4,95.29Z"/><path id="e" class="cls-2" d="M903.59,141.74q0,14.25-7.06,21.09t-15.64,6.83H826q0,6.5,7.64,10.89a30.45,30.45,0,0,0,15.29,4.4q13.44,0,21.08-2.78l2.55-.93c3.71-1.7,6.79-2.54,9.27-2.54q7.41,0,12.74,10.42,3,6.25,3,10.66,0,20.61-49.34,20.61-17.15,0-30.47-5.9T797,198.85a66.6,66.6,0,0,1-14.6-41.93q0-29.19,18.88-46.68t47.15-17.49q32.19,0,47.26,22.7A47.18,47.18,0,0,1,903.59,141.74Zm-48.88,6.84q8.81,0,8.81-7.41a10.48,10.48,0,0,0-4.06-8.58q-4.05-3.24-11.58-3.24t-14.94,6.14q-7.43,6.13-7.42,13.09Z"/><path id="n-2" data-name="n" class="cls-2" d="M986.53,95.29q23.16,0,38.57,17.73t15.41,43.2V197a67.45,67.45,0,0,1-.35,8,18.87,18.87,0,0,1-2,5.91q-3.26,6.25-18.07,6.25-16.46,0-19-8.57-1.38-3.93-1.39-11.82V156q0-9.5-5.44-14.82t-14.6-5.33q-9.15,0-14.82,5.56T959.19,156v41a67.93,67.93,0,0,1-.34,8,16.55,16.55,0,0,1-2.21,5.91q-3,6.25-17.83,6.25-14.59,0-17.84-6.25a21.55,21.55,0,0,1-2-6.14,67.65,67.65,0,0,1-.35-8v-82A65,65,0,0,1,919,107a16.35,16.35,0,0,1,2.2-5.9q3.24-5.79,17.84-5.8,14.13,0,17.37,5.33a18.4,18.4,0,0,1,2.32,9.5,23.17,23.17,0,0,1,4.17-4.63,40.59,40.59,0,0,1,6.25-4.87A30.36,30.36,0,0,1,986.53,95.29Z"/></g></g></g></g></svg>