<svg xmlns="http://www.w3.org/2000/svg" viewBox="0 0 1570 971.44"><defs><style>.cls-1{fill:#fff;}.cls-1,.cls-2,.cls-3,.cls-4,.cls-5{stroke:#ddd;}.cls-1,.cls-2,.cls-3,.cls-4,.cls-5,.cls-6{stroke-miterlimit:10;}.cls-2{fill:#efefef;}.cls-3{fill:#aad8b0;}.cls-4{fill:#ffcc5c;}.cls-5{fill:#ff6f69;}.cls-6{fill:none;stroke:#cbcbcb;stroke-width:4px;}.cls-7{fill:#ddd;}</style></defs><title>browser-bittinen</title><g id="Layer_2" data-name="Layer 2"><g id="Layer_2-2" data-name="Layer 2"><g id="browser"><g id="browser-2" data-name="browser"><path class="cls-1" d="M1550,.94H20A19.57,19.57,0,0,0,.5,20.46v931A19.57,19.57,0,0,0,20,970.94H1550a19.57,19.57,0,0,0,19.52-19.52v-931A19.57,19.57,0,0,0,1550,.94ZM952.29,598.72a112.23,112.23,0,0,1-53.59,13.15c-79.66,0-159.32.08-239-.12-19.74,0-38.06-5.39-54-17.57-14-10.67-21.33-25.19-24.3-42.16-4.86-27.68,2.77-51.17,25-68.73,8.89-7,19.24-12.28,29.18-17.88,2.59-1.46,3.72-2.63,3.58-5.56C637.87,431,654,413.61,677.93,401.44c18.74-9.55,38.24-9.58,58.18-4.62a6.53,6.53,0,0,0,5-1.45c18-15.91,38.32-27.54,62-32.63,24.75-5.32,48.79-2.93,71.88,7.56,13.56,6.15,26.39,13.53,36.66,24.59,13,14,21.21,30.05,20.58,49.76-.2,6.13,0,12.26,0,18,9.79,5.81,20,10.88,29,17.48,13.5,9.81,23.55,22.72,27,39.46C994.6,550.66,983.65,582,952.29,598.72Z"/><path id="top-bar" class="cls-2" d="M19.18.5H1550.87a18.63,18.63,0,0,1,18.63,18.63V87.5a0,0,0,0,1,0,0H.5a0,0,0,0,1,0,0V19.18A18.68,18.68,0,0,1,19.18.5Z"/></g><g id="traffic-lights"><circle class="cls-3" cx="1463.5" cy="44" r="10"/><circle class="cls-4" cx="1494" cy="44" r="10"/><circle class="cls-5" cx="1524.5" cy="44" r="10"/></g><rect id="URL" class="cls-1" x="234.5" y="25.5" width="1100" height="37" rx="12" ry="12"/><g id="chevrons"><g id="chevron-left"><polyline class="cls-6" points="42.5 54.75 32 44.25 43 33.25"/><line class="cls-6" x1="32" y1="44.25" x2="56" y2="44.25"/></g><g id="chevron-left-2" data-name="chevron-left"><polyline class="cls-6" points="88.5 54.75 99 44.25 88 33.25"/><line class="cls-6" x1="99" y1="44.25" x2="75" y2="44.25"/></g></g><path id="pilvi" class="cls-7" d="M952.29,598.72a112.23,112.23,0,0,1-53.59,13.15c-79.66,0-159.32.08-239-.12-19.74,0-38.06-5.39-54-17.57-14-10.67-21.33-25.19-24.3-42.16-4.86-27.68,2.77-51.17,25-68.73,8.89-7,19.24-12.28,29.18-17.88,2.59-1.46,3.72-2.63,3.58-5.56C637.87,431,654,413.61,677.93,401.44c18.74-9.55,38.24-9.58,58.18-4.62a6.53,6.53,0,0,0,5-1.45c18-15.91,38.32-27.54,62-32.63,24.75-5.32,48.79-2.93,71.88,7.56,13.56,6.15,26.39,13.53,36.66,24.59,13,14,21.21,30.05,20.58,49.76-.2,6.13,0,12.26,0,18,9.79,5.81,20,10.88,29,17.48,13.5,9.81,23.55,22.72,27,39.46C994.6,550.66,983.65,582,952.29,598.72Z"/></g></g></g></svg>